<svg width="20" height="20" viewBox="0 0 20 20" fill="none" xmlns="http://www.w3.org/2000/svg">
<g clip-path="url(#clip0_27_1022)">
<path d="M7.91667 6.66667H1.25C0.560833 6.66667 0 6.10583 0 5.41667V1.25C0 0.560833 0.560833 0 1.25 0H7.91667C8.60583 0 9.16667 0.560833 9.16667 1.25V5.41667C9.16667 6.10583 8.60583 6.66667 7.91667 6.66667ZM1.25 0.833333C1.02083 0.833333 0.833333 1.02 0.833333 1.25V5.41667C0.833333 5.64667 1.02083 5.83333 1.25 5.83333H7.91667C8.14583 5.83333 8.33333 5.64667 8.33333 5.41667V1.25C8.33333 1.02 8.14583 0.833333 7.91667 0.833333H1.25Z" fill="white"/>
<path d="M7.91667 20H1.25C0.560833 20 0 19.4391 0 18.75V9.58331C0 8.89415 0.560833 8.33331 1.25 8.33331H7.91667C8.60583 8.33331 9.16667 8.89415 9.16667 9.58331V18.75C9.16667 19.4391 8.60583 20 7.91667 20ZM1.25 9.16665C1.02083 9.16665 0.833333 9.35331 0.833333 9.58331V18.75C0.833333 18.98 1.02083 19.1666 1.25 19.1666H7.91667C8.14583 19.1666 8.33333 18.98 8.33333 18.75V9.58331C8.33333 9.35331 8.14583 9.16665 7.91667 9.16665H1.25Z" fill="white"/>
<path d="M18.7502 20H12.0835C11.3943 20 10.8335 19.4392 10.8335 18.75V14.5833C10.8335 13.8942 11.3943 13.3333 12.0835 13.3333H18.7502C19.4393 13.3333 20.0002 13.8942 20.0002 14.5833V18.75C20.0002 19.4392 19.4393 20 18.7502 20ZM12.0835 14.1667C11.8543 14.1667 11.6668 14.3533 11.6668 14.5833V18.75C11.6668 18.98 11.8543 19.1667 12.0835 19.1667H18.7502C18.9793 19.1667 19.1668 18.98 19.1668 18.75V14.5833C19.1668 14.3533 18.9793 14.1667 18.7502 14.1667H12.0835Z" fill="white"/>
<path d="M18.7502 11.6667H12.0835C11.3943 11.6667 10.8335 11.1058 10.8335 10.4167V1.25C10.8335 0.560833 11.3943 0 12.0835 0H18.7502C19.4393 0 20.0002 0.560833 20.0002 1.25V10.4167C20.0002 11.1058 19.4393 11.6667 18.7502 11.6667ZM12.0835 0.833333C11.8543 0.833333 11.6668 1.02 11.6668 1.25V10.4167C11.6668 10.6467 11.8543 10.8333 12.0835 10.8333H18.7502C18.9793 10.8333 19.1668 10.6467 19.1668 10.4167V1.25C19.1668 1.02 18.9793 0.833333 18.7502 0.833333H12.0835Z" fill="white"/>
</g>
<defs>
<clipPath id="clip0_27_1022">
<rect width="20" height="20" fill="white"/>
</clipPath>
</defs>
</svg>
