<svg width="20" height="20" viewBox="0 0 20 20" fill="none" xmlns="http://www.w3.org/2000/svg">
<path d="M10.0309 8C11.701 8 13 6.63918 13 4.96907C13 3.29897 11.6392 2 9.96907 2C8.29897 2 7 3.36082 7 4.96907C7 6.63918 8.36082 8 10.0309 8ZM9.96907 3.23711C10.0309 3.23711 10.0309 3.23711 9.96907 3.23711C10.9588 3.23711 11.7629 4.04124 11.7629 5.03093C11.7629 6.02062 10.9588 6.76289 9.96907 6.76289C8.97938 6.76289 8.23711 5.95876 8.23711 5.03093C8.23711 4.04124 9.04124 3.23711 9.96907 3.23711V3.23711Z" fill="white"/>
<path d="M15.9259 11.5642L15.7778 11.3566C14.2963 9.83415 12.2222 8.93452 10 9.00372C7.77778 8.93452 5.62963 9.83415 4.14815 11.3566L4 11.5642V16.8236C4 17.4464 4.51852 18 5.25926 18H14.7407C15.4074 18 16 17.4464 16 16.8236V11.5642H15.9259ZM14.4444 16.616H5.48148V12.0486C6.66667 10.9414 8.2963 10.3878 10 10.3878C11.6296 10.3186 13.2593 10.9414 14.4444 12.0486V16.616Z" fill="white"/>
</svg>
