<svg width="20" height="20" viewBox="0 0 20 20" fill="none" xmlns="http://www.w3.org/2000/svg">
<g clip-path="url(#clip0_130_2076)">
<path d="M9.94439 9.61112C11.4444 9.61112 12.6111 8.3889 12.6111 6.8889C12.6111 5.3889 11.3888 4.22223 9.88883 4.22223C8.38883 4.22223 7.22217 5.44445 7.22217 6.8889C7.22217 8.3889 8.44439 9.61112 9.94439 9.61112ZM9.88883 5.33334C9.94439 5.33334 9.94439 5.33334 9.88883 5.33334C10.7777 5.33334 11.4999 6.05556 11.4999 6.94445C11.4999 7.83334 10.7777 8.50001 9.88883 8.50001C8.99995 8.50001 8.33328 7.77778 8.33328 6.94445C8.33328 6.05556 9.0555 5.33334 9.88883 5.33334V5.33334Z" fill="white"/>
<path d="M18.1668 9.27777C17.1113 8.33333 15.7224 7.83333 14.2779 7.88889H13.8335C13.7224 8.33333 13.5557 8.72222 13.3335 9.05555C13.6668 9 13.9446 9 14.2779 9C15.3335 8.94444 16.3891 9.27777 17.2224 9.88889V13.8889H18.3335V9.44444L18.1668 9.27777Z" fill="white"/>
<path d="M12.9999 4.33333C13.2777 3.66666 14.0555 3.33333 14.7777 3.61111C15.4444 3.88889 15.7777 4.66666 15.4999 5.38889C15.2777 5.88889 14.7777 6.22222 14.2777 6.22222C14.1666 6.22222 13.9999 6.22222 13.8888 6.16666C13.9444 6.44444 13.9444 6.72222 13.9444 6.94444V7.27777C14.0555 7.27777 14.1666 7.33333 14.2777 7.33333C15.6666 7.33333 16.7777 6.22222 16.7777 4.88889C16.7777 3.5 15.6666 2.38889 14.3333 2.38889C13.4444 2.38889 12.6666 2.83333 12.2222 3.61111C12.4999 3.77777 12.7777 4 12.9999 4.33333V4.33333Z" fill="white"/>
<path d="M6.6665 9.1111C6.44428 8.77777 6.27762 8.38888 6.1665 7.94443H5.72206C4.27762 7.88888 2.88873 8.38888 1.83317 9.27777L1.6665 9.44443V13.8889H2.77762V9.88888C3.6665 9.27777 4.6665 8.94443 5.72206 8.99999C6.05539 8.99999 6.38873 9.05554 6.6665 9.1111Z" fill="white"/>
<path d="M5.72215 7.27777C5.83326 7.27777 5.94437 7.27777 6.05548 7.22221V6.88888C6.05548 6.6111 6.05548 6.33332 6.11104 6.1111C5.99993 6.16666 5.83326 6.16666 5.72215 6.16666C4.99993 6.16666 4.38881 5.55555 4.38881 4.83332C4.38881 4.1111 4.99993 3.49999 5.72215 3.49999C6.2777 3.49999 6.7777 3.83332 6.99993 4.33332C7.22215 4.05555 7.55548 3.77777 7.83326 3.55555C7.11104 2.38888 5.61104 1.99999 4.44437 2.72221C3.2777 3.44443 2.88881 4.94443 3.61104 6.1111C4.05548 6.83332 4.83326 7.27777 5.72215 7.27777V7.27777Z" fill="white"/>
<path d="M14.5001 12.6111L14.389 12.4444C13.2779 11.2222 11.7223 10.5 10.0557 10.5555C8.389 10.5 6.77789 11.2222 5.66678 12.4444L5.55566 12.6111V16.8333C5.55566 17.3333 5.94455 17.7778 6.50011 17.7778H13.6112C14.1112 17.7778 14.5557 17.3333 14.5557 16.8333V12.6111H14.5001ZM13.389 16.6667H6.66678V13C7.55566 12.1111 8.77789 11.6667 10.0557 11.6667C11.2779 11.6111 12.5001 12.1111 13.389 13V16.6667Z" fill="white"/>
</g>
<defs>
<clipPath id="clip0_130_2076">
<rect width="20" height="20" fill="white"/>
</clipPath>
</defs>
</svg>
