<svg width="23" height="22" viewBox="0 0 23 22" fill="none" xmlns="http://www.w3.org/2000/svg">
<path fill-rule="evenodd" clip-rule="evenodd" d="M11.5 0C5.425 0 0.5 4.925 0.5 11C0.5 17.075 5.425 22 11.5 22C17.575 22 22.5 17.075 22.5 11C22.5 4.925 17.575 0 11.5 0ZM12.5 6C12.5 5.73478 12.3946 5.48043 12.2071 5.29289C12.0196 5.10536 11.7652 5 11.5 5C11.2348 5 10.9804 5.10536 10.7929 5.29289C10.6054 5.48043 10.5 5.73478 10.5 6V12C10.5 12.2652 10.6054 12.5196 10.7929 12.7071C10.9804 12.8946 11.2348 13 11.5 13C11.7652 13 12.0196 12.8946 12.2071 12.7071C12.3946 12.5196 12.5 12.2652 12.5 12V6ZM12.5 15.5C12.5 15.2348 12.3946 14.9804 12.2071 14.7929C12.0196 14.6054 11.7652 14.5 11.5 14.5C11.2348 14.5 10.9804 14.6054 10.7929 14.7929C10.6054 14.9804 10.5 15.2348 10.5 15.5V16C10.5 16.2652 10.6054 16.5196 10.7929 16.7071C10.9804 16.8946 11.2348 17 11.5 17C11.7652 17 12.0196 16.8946 12.2071 16.7071C12.3946 16.5196 12.5 16.2652 12.5 16V15.5Z" fill="black"/>
</svg>
